<svg width="61" height="36" viewBox="0 0 61 36" fill="none" xmlns="http://www.w3.org/2000/svg">
<path d="M2.14844 32.4922C1.17969 31.7578 0.945312 31.0156 1.44531 30.2656L3.25 27.5469C3.84375 26.6562 4.71094 26.6094 5.85156 27.4062C6.72656 28.0156 7.86719 28.6484 9.27344 29.3047C10.6953 29.9453 12.1875 30.2656 13.75 30.2656C14.8438 30.2656 15.8984 30.1406 16.9141 29.8906C17.9297 29.6406 18.7031 29.1562 19.2344 28.4375C19.7656 27.7188 20.0312 26.8672 20.0312 25.8828C20.0312 25.1797 19.9141 24.5625 19.6797 24.0312C19.4453 23.5 19.0625 23.0625 18.5312 22.7188C18 22.375 17.4531 22.0859 16.8906 21.8516C15.9062 21.4453 14.6641 21.0469 13.1641 20.6562C11.6797 20.25 10.2109 19.7656 8.75781 19.2031C7.46094 18.7031 6.27344 18.0156 5.19531 17.1406C4.11719 16.2656 3.28125 15.2812 2.6875 14.1875C2.09375 13.0938 1.79688 11.6328 1.79688 9.80469C1.79688 7.63281 2.5 5.77344 3.90625 4.22656C5.3125 2.67969 6.92969 1.6875 8.75781 1.25C10.5859 0.8125 12.4297 0.59375 14.2891 0.59375C16.1328 0.59375 18.0312 0.875 19.9844 1.4375C21.9531 2 23.4375 2.70312 24.4375 3.54688C25.4219 4.375 25.6641 5.125 25.1641 5.79688L23.2656 8.35156C22.625 9.22656 21.7656 9.29688 20.6875 8.5625C20 8.09375 19.0547 7.57031 17.8516 6.99219C16.6641 6.41406 15.4219 6.125 14.125 6.125C13.2031 6.125 12.3516 6.20312 11.5703 6.35938C10.8047 6.51562 10.125 6.89062 9.53125 7.48438C8.9375 8.07812 8.64062 8.8125 8.64062 9.6875C8.64062 10.5312 8.85938 11.2188 9.29688 11.75C9.73438 12.2656 10.2188 12.6562 10.75 12.9219C11.2812 13.1719 11.8203 13.3828 12.3672 13.5547C14.0547 14.1016 15.5625 14.5859 16.8906 15.0078C18.2188 15.4141 19.4453 15.8672 20.5703 16.3672C22.1328 17.0703 23.3281 17.7734 24.1562 18.4766C24.9844 19.1797 25.6641 20.1406 26.1953 21.3594C26.7422 22.5781 27.0156 24.0312 27.0156 25.7188C27.0156 28.2188 26.2188 30.2891 24.625 31.9297C23.0312 33.5547 21.2578 34.6016 19.3047 35.0703C17.3672 35.5547 15.4766 35.7969 13.6328 35.7969C10.9141 35.7969 8.70312 35.5312 7 35C5.29688 34.4844 3.67969 33.6484 2.14844 32.4922ZM34.0469 35C32.9531 35 32.4062 34.4141 32.4062 33.2422V3.14844C32.4062 1.97656 32.9531 1.39062 34.0469 1.39062H37.6094C38.7031 1.39062 39.25 1.97656 39.25 3.14844V12.4766C39.25 13.4141 39.2109 14.3516 39.1328 15.2891H39.2969L50.6875 2.77344C51.5312 1.85156 52.25 1.39062 52.8438 1.39062H57.5547C59.3828 1.39062 59.6797 2.0625 58.4453 3.40625L47.7812 15.0781L59.1953 32.9844C60.0547 34.3281 59.7578 35 58.3047 35H53.9219C53.1094 35 52.4062 34.5391 51.8125 33.6172L43.1875 20.0938L39.25 24.5234V33.2422C39.25 34.4141 38.7031 35 37.6094 35H34.0469Z" fill="black"/>
</svg>
